<?xml version="1.0" encoding="UTF-8"?>
<svg width="14px" height="18px" viewBox="0 0 14 18" version="1.1" xmlns="http://www.w3.org/2000/svg">
    <path fill="currentColor" d="M13.0729 5.6225C12.2789 4.6104 11.1543 4.4584 10.8264 4.4476C9.53305 4.3172 8.2935 5.1544 7.62545 5.1544C6.94122 5.1544 5.89073 4.4692 4.82805 4.4908C3.43252 4.5124 2.13788 5.2981 1.41707 6.5712C-0.0675957 9.1391 1.00505 12.9243 2.42675 15.0674C3.13538 16.1202 3.96931 17.2891 5.07154 17.2567C6.13422 17.2243 6.5698 16.5738 7.83533 16.5738C9.08467 16.5738 9.48791 17.2567 10.6117 17.2351C11.7571 17.2135 12.4787 16.1742 13.1765 15.1189C13.9838 13.9176 14.3114 12.7487 14.3329 12.6839C14.3006 12.6731 12.0606 11.8575 12.0391 9.3235C12.0176 7.1912 13.8141 6.2161 13.8787 6.1729C12.8821 4.7237 11.3388 4.5825 10.8049 4.5501C9.54736 4.4476 8.43295 5.2441 7.82314 5.2441C7.19276 5.2441 6.24907 4.6212 5.17421 4.6212L13.0729 5.6225ZM10.6978 2.7133C11.2743 2.0196 11.6558 1.0507 11.5554 0.0709534C10.6978 0.1033 9.63511 0.6461 9.0371 1.3398C8.49861 1.9583 8.03318 2.9488 8.15478 3.907C9.09847 3.9718 10.1211 3.407 10.6978 2.7133Z"/>
</svg> 